<svg width="60" height="60" viewBox="0 0 60 60" fill="none" xmlns="http://www.w3.org/2000/svg">
<rect width="60" height="60" rx="5" fill="#E39A89"/>
<path d="M14.5106 20.864C14.5106 20.6147 14.54 20.446 14.5986 20.358C14.672 20.2553 14.7966 20.204 14.9726 20.204C15.1633 20.204 15.486 20.402 15.9406 20.798C16.3953 21.194 16.6373 21.546 16.6666 21.854C16.7253 22.382 17.004 23.3207 17.5026 24.67C18.0013 26.0047 18.5733 27.3613 19.2186 28.74C20.04 27.772 21.074 26.4887 22.3206 24.89C23.5673 23.2767 24.4913 22.1327 25.0926 21.458C25.694 20.7833 26.1266 20.446 26.3906 20.446C26.6546 20.446 26.9333 20.5927 27.2266 20.886C27.52 21.1793 27.6666 21.458 27.6666 21.722C27.6666 21.986 27.6373 22.2867 27.5786 22.624C27.52 22.9613 27.4173 23.4087 27.2706 23.966C27.1386 24.5087 27.014 24.9853 26.8966 25.396C26.794 25.792 26.618 26.4153 26.3686 27.266C26.1193 28.1167 25.9286 28.7987 25.7966 29.312C25.6646 29.8107 25.5106 30.4267 25.3346 31.16C25.1586 31.8787 25.012 32.4727 24.8946 32.942C24.792 33.3967 24.682 33.844 24.5646 34.284C24.3446 35.1347 24.132 35.56 23.9266 35.56C23.736 35.56 23.5453 35.384 23.3546 35.032C23.164 34.68 23.0686 34.2107 23.0686 33.624C23.0686 33.0227 23.318 31.6587 23.8166 29.532C24.33 27.4053 24.88 25.5427 25.4666 23.944C22.768 27.3173 21.1033 29.334 20.4726 29.994C19.8566 30.654 19.3433 30.984 18.9326 30.984C18.5366 30.984 18.1626 30.7567 17.8106 30.302C17.2826 29.5393 16.5713 27.7353 15.6766 24.89C15.4273 26.43 15.1486 27.75 14.8406 28.85C14.5473 29.9353 14.3493 30.6613 14.2466 31.028C14.1586 31.38 14.078 31.6733 14.0046 31.908C13.946 32.1427 13.8726 32.4213 13.7846 32.744C13.6966 33.052 13.616 33.3087 13.5426 33.514C13.484 33.7193 13.418 33.9467 13.3446 34.196C13.2713 34.4307 13.2053 34.6213 13.1466 34.768C13.1026 34.9147 13.0513 35.054 12.9926 35.186C12.8753 35.4353 12.7873 35.56 12.7286 35.56C12.5526 35.56 12.3326 35.3693 12.0686 34.988C11.8046 34.6067 11.6726 34.24 11.6726 33.888C11.6726 33.536 12.142 31.512 13.0806 27.816C14.034 24.12 14.5106 21.8027 14.5106 20.864ZM36.27 20.864C36.27 20.6147 36.2993 20.446 36.358 20.358C36.4313 20.2553 36.556 20.204 36.732 20.204C36.9227 20.204 37.2453 20.402 37.7 20.798C38.1547 21.194 38.3967 21.546 38.426 21.854C38.4847 22.382 38.7633 23.3207 39.262 24.67C39.7607 26.0047 40.3327 27.3613 40.978 28.74C41.7993 27.772 42.8333 26.4887 44.08 24.89C45.3267 23.2767 46.2507 22.1327 46.852 21.458C47.4533 20.7833 47.886 20.446 48.15 20.446C48.414 20.446 48.6927 20.5927 48.986 20.886C49.2793 21.1793 49.426 21.458 49.426 21.722C49.426 21.986 49.3967 22.2867 49.338 22.624C49.2793 22.9613 49.1767 23.4087 49.03 23.966C48.898 24.5087 48.7733 24.9853 48.656 25.396C48.5533 25.792 48.3773 26.4153 48.128 27.266C47.8787 28.1167 47.688 28.7987 47.556 29.312C47.424 29.8107 47.27 30.4267 47.094 31.16C46.918 31.8787 46.7713 32.4727 46.654 32.942C46.5513 33.3967 46.4413 33.844 46.324 34.284C46.104 35.1347 45.8913 35.56 45.686 35.56C45.4953 35.56 45.3047 35.384 45.114 35.032C44.9233 34.68 44.828 34.2107 44.828 33.624C44.828 33.0227 45.0773 31.6587 45.576 29.532C46.0893 27.4053 46.6393 25.5427 47.226 23.944C44.5273 27.3173 42.8627 29.334 42.232 29.994C41.616 30.654 41.1027 30.984 40.692 30.984C40.296 30.984 39.922 30.7567 39.57 30.302C39.042 29.5393 38.3307 27.7353 37.436 24.89C37.1867 26.43 36.908 27.75 36.6 28.85C36.3067 29.9353 36.1087 30.6613 36.006 31.028C35.918 31.38 35.8373 31.6733 35.764 31.908C35.7053 32.1427 35.632 32.4213 35.544 32.744C35.456 33.052 35.3753 33.3087 35.302 33.514C35.2433 33.7193 35.1773 33.9467 35.104 34.196C35.0307 34.4307 34.9647 34.6213 34.906 34.768C34.862 34.9147 34.8107 35.054 34.752 35.186C34.6347 35.4353 34.5467 35.56 34.488 35.56C34.312 35.56 34.092 35.3693 33.828 34.988C33.564 34.6067 33.432 34.24 33.432 33.888C33.432 33.536 33.9013 31.512 34.84 27.816C35.7933 24.12 36.27 21.8027 36.27 20.864Z" fill="white"/>
<path d="M14.5986 20.358L14.1918 20.0674L14.1871 20.0739L14.1826 20.0806L14.5986 20.358ZM15.9406 20.798L15.6122 21.175L15.6122 21.175L15.9406 20.798ZM16.6666 21.854L16.1688 21.9014L16.1697 21.9092L16.6666 21.854ZM17.5026 24.67L17.0336 24.8433L17.0342 24.845L17.5026 24.67ZM19.2186 28.74L18.7658 28.952L19.096 29.6574L19.5999 29.0635L19.2186 28.74ZM22.3206 24.89L22.7149 25.1975L22.7163 25.1957L22.3206 24.89ZM27.2266 20.886L26.8731 21.2396L26.8731 21.2396L27.2266 20.886ZM27.2706 23.966L26.787 23.8387L26.7848 23.8478L27.2706 23.966ZM26.8966 25.396L26.4157 25.2586L26.4126 25.2705L26.8966 25.396ZM25.7966 29.312L26.28 29.4399L26.2809 29.4365L25.7966 29.312ZM25.3346 31.16L25.8203 31.2789L25.8208 31.2767L25.3346 31.16ZM24.8946 32.942L24.4094 32.8207L24.4069 32.8319L24.8946 32.942ZM24.5646 34.284L24.0815 34.1552L24.0806 34.1588L24.5646 34.284ZM23.3546 35.032L23.7943 34.7939L23.7943 34.7939L23.3546 35.032ZM23.8166 29.532L23.3306 29.4147L23.3298 29.4179L23.8166 29.532ZM25.4666 23.944L25.936 24.1163L25.0762 23.6317L25.4666 23.944ZM20.4726 29.994L20.1111 29.6485L20.1071 29.6528L20.4726 29.994ZM17.8106 30.302L17.3995 30.5866L17.4071 30.5976L17.4153 30.6081L17.8106 30.302ZM15.6766 24.89L16.1536 24.74L15.1831 24.8101L15.6766 24.89ZM14.8406 28.85L14.3591 28.7152L14.3579 28.7195L14.8406 28.85ZM14.2466 31.028L13.765 30.8931L13.7616 30.9067L14.2466 31.028ZM14.0046 31.908L13.5274 31.7589L13.5231 31.7727L13.5196 31.7867L14.0046 31.908ZM13.7846 32.744L14.2654 32.8814L14.267 32.8756L13.7846 32.744ZM13.5426 33.514L13.0718 33.3458L13.0663 33.3611L13.0619 33.3766L13.5426 33.514ZM13.3446 34.196L13.8219 34.3452L13.8243 34.3371L13.3446 34.196ZM13.1466 34.768L12.6824 34.5823L12.6741 34.603L12.6677 34.6243L13.1466 34.768ZM12.9926 35.186L13.4451 35.3989L13.4495 35.3891L12.9926 35.186ZM12.0686 34.988L11.6575 35.2726L11.6575 35.2726L12.0686 34.988ZM13.0806 27.816L12.5965 27.6911L12.596 27.6929L13.0806 27.816ZM15.0106 20.864C15.0106 20.7563 15.0172 20.6826 15.0252 20.6362C15.0292 20.6136 15.0325 20.603 15.0331 20.6013C15.0339 20.5991 15.0295 20.6131 15.0146 20.6354L14.1826 20.0806C14.0981 20.2074 14.0601 20.3493 14.04 20.4648C14.0188 20.587 14.0106 20.7223 14.0106 20.864H15.0106ZM15.0055 20.6486C14.9959 20.662 14.9839 20.6747 14.9702 20.6853C14.9568 20.6958 14.945 20.7018 14.9375 20.7048C14.9241 20.7104 14.9309 20.704 14.9726 20.704V19.704C14.7038 19.704 14.3928 19.786 14.1918 20.0674L15.0055 20.6486ZM14.9726 20.704C14.9219 20.704 14.9496 20.6888 15.0961 20.7787C15.2242 20.8573 15.3951 20.9859 15.6122 21.175L16.269 20.421C16.0315 20.2141 15.8137 20.0457 15.6191 19.9263C15.4429 19.8182 15.214 19.704 14.9726 19.704V20.704ZM15.6122 21.175C16.0503 21.5566 16.159 21.7973 16.1689 21.9014L17.1644 21.8066C17.1156 21.2947 16.7403 20.8314 16.269 20.421L15.6122 21.175ZM16.1697 21.9092C16.236 22.5065 16.537 23.4995 17.0336 24.8433L17.9716 24.4967C17.4709 23.1419 17.2145 22.2575 17.1636 21.7988L16.1697 21.9092ZM17.0342 24.845C17.5379 26.193 18.1152 27.562 18.7658 28.952L19.6715 28.528C19.0314 27.1607 18.4647 25.8163 17.971 24.495L17.0342 24.845ZM19.5999 29.0635C20.4275 28.0881 21.4662 26.7988 22.7149 25.1975L21.9263 24.5825C20.6817 26.1786 19.6524 27.4559 18.8374 28.4165L19.5999 29.0635ZM22.7163 25.1957C23.9624 23.5831 24.8772 22.4512 25.4659 21.7907L24.7194 21.1253C24.1054 21.8141 23.1722 22.9702 21.925 24.5843L22.7163 25.1957ZM25.4659 21.7907C25.7576 21.4634 25.9932 21.2355 26.1756 21.0933C26.3821 20.9323 26.4396 20.946 26.3906 20.946V19.946C26.0777 19.946 25.7868 20.1284 25.5607 20.3047C25.3103 20.4999 25.029 20.7779 24.7194 21.1253L25.4659 21.7907ZM26.3906 20.946C26.4632 20.946 26.6216 20.988 26.8731 21.2396L27.5802 20.5324C27.245 20.1973 26.846 19.946 26.3906 19.946V20.946ZM26.8731 21.2396C27.1246 21.4911 27.1666 21.6494 27.1666 21.722H28.1666C28.1666 21.2666 27.9153 20.8676 27.5802 20.5324L26.8731 21.2396ZM27.1666 21.722C27.1666 21.9503 27.1411 22.2215 27.086 22.5383L28.0712 22.7097C28.1335 22.3519 28.1666 22.0217 28.1666 21.722H27.1666ZM27.086 22.5383C27.0309 22.8555 26.9322 23.2873 26.7871 23.8388L27.7542 24.0932C27.9024 23.5301 28.0091 23.0672 28.0712 22.7097L27.086 22.5383ZM26.7848 23.8478C26.6539 24.3859 26.5309 24.8559 26.4159 25.2586L27.3774 25.5334C27.497 25.1147 27.6233 24.6314 27.7565 24.0842L26.7848 23.8478ZM26.4126 25.2705C26.3121 25.6584 26.138 26.2753 25.8888 27.1254L26.8484 27.4066C27.098 26.5553 27.2759 25.9256 27.3806 25.5215L26.4126 25.2705ZM25.8888 27.1254C25.6388 27.9783 25.4464 28.6664 25.3124 29.1875L26.2809 29.4365C26.4109 28.931 26.5998 28.255 26.8484 27.4066L25.8888 27.1254ZM25.3133 29.1841C25.1799 29.6877 25.025 30.3078 24.8484 31.0433L25.8208 31.2767C25.9963 30.5456 26.1493 29.9336 26.28 29.4399L25.3133 29.1841ZM24.849 31.0411C24.6731 31.7593 24.5266 32.3525 24.4096 32.8207L25.3797 33.0633C25.4973 32.5929 25.6442 31.998 25.8203 31.2789L24.849 31.0411ZM24.4069 32.8319C24.3056 33.2804 24.1971 33.7215 24.0815 34.1552L25.0477 34.4128C25.1668 33.9665 25.2783 33.5129 25.3823 33.0521L24.4069 32.8319ZM24.0806 34.1588C23.9733 34.5736 23.8755 34.8522 23.7929 35.0174C23.7732 35.0567 23.7566 35.0852 23.7436 35.1049C23.7303 35.125 23.7237 35.1315 23.7254 35.1298C23.7267 35.1284 23.7428 35.1121 23.7757 35.0952C23.8108 35.0772 23.8628 35.06 23.9266 35.06V36.06C24.1627 36.06 24.335 35.9361 24.4386 35.8307C24.5427 35.7249 24.623 35.5934 24.6873 35.4646C24.8174 35.2045 24.936 34.8451 25.0487 34.4092L24.0806 34.1588ZM23.9266 35.06C23.9964 35.06 24.0165 35.0945 23.9798 35.0606C23.9405 35.0244 23.876 34.9448 23.7943 34.7939L22.915 35.2701C23.0239 35.4712 23.1501 35.6556 23.3015 35.7954C23.4554 35.9375 23.6662 36.06 23.9266 36.06V35.06ZM23.7943 34.7939C23.6574 34.5412 23.5686 34.1635 23.5686 33.624H22.5686C22.5686 34.2579 22.6705 34.8188 22.915 35.2701L23.7943 34.7939ZM23.5686 33.624C23.5686 33.3727 23.6231 32.9205 23.7475 32.2399C23.8701 31.5693 24.055 30.7054 24.3034 29.6461L23.3298 29.4179C23.0795 30.4852 22.8905 31.3667 22.7638 32.0601C22.6388 32.7435 22.5686 33.274 22.5686 33.624H23.5686ZM24.3027 29.6493C24.8127 27.5363 25.3575 25.6927 25.936 24.1163L24.9972 23.7717C24.4024 25.3926 23.8472 27.2743 23.3306 29.4147L24.3027 29.6493ZM25.0762 23.6317C22.3709 27.0133 20.7228 29.0085 20.1111 29.6486L20.8341 30.3394C21.4838 29.6595 23.1651 27.6213 25.8571 24.2563L25.0762 23.6317ZM20.1071 29.6528C19.8153 29.9655 19.5647 30.1813 19.3552 30.3159C19.1425 30.4527 19.0061 30.484 18.9326 30.484V31.484C19.2698 31.484 19.5955 31.3503 19.896 31.1571C20.1999 30.9617 20.514 30.6825 20.8382 30.3352L20.1071 29.6528ZM18.9326 30.484C18.752 30.484 18.508 30.386 18.206 29.9959L17.4153 30.6081C17.8173 31.1273 18.3212 31.484 18.9326 31.484V30.484ZM18.2217 30.0174C17.9924 29.6861 17.6997 29.0898 17.3463 28.1936C16.9966 27.3068 16.5991 26.1567 16.1536 24.74L15.1996 25.04C15.6489 26.4686 16.0543 27.6432 16.416 28.5604C16.7739 29.4682 17.1009 30.1552 17.3995 30.5866L18.2217 30.0174ZM15.1831 24.8101C14.9357 26.3378 14.6606 27.6384 14.3591 28.7152L15.3221 28.9848C15.6366 27.8616 15.9189 26.5222 16.1702 24.9699L15.1831 24.8101ZM14.3579 28.7195C14.0645 29.8052 13.8671 30.529 13.7651 30.8932L14.7281 31.1628C14.8315 30.7936 15.0301 30.0654 15.3233 28.9805L14.3579 28.7195ZM13.7616 30.9067C13.6749 31.2533 13.5968 31.5366 13.5274 31.7589L14.4819 32.0571C14.5591 31.8101 14.6423 31.5067 14.7317 31.1493L13.7616 30.9067ZM13.5196 31.7867C13.462 32.0169 13.3896 32.292 13.3022 32.6124L14.267 32.8756C14.3556 32.5507 14.4299 32.2684 14.4897 32.0293L13.5196 31.7867ZM13.3039 32.6066C13.2176 32.9086 13.1402 33.1542 13.0718 33.3458L14.0135 33.6822C14.0917 33.4632 14.1757 33.1954 14.2654 32.8814L13.3039 32.6066ZM13.0619 33.3766C13.0036 33.5805 12.938 33.8066 12.8649 34.0549L13.8243 34.3371C13.8979 34.0868 13.9643 33.8582 14.0234 33.6514L13.0619 33.3766ZM12.8674 34.0469C12.796 34.2751 12.7344 34.4523 12.6824 34.5823L13.6109 34.9537C13.6762 34.7904 13.7465 34.5862 13.8219 34.3451L12.8674 34.0469ZM12.6677 34.6243C12.6294 34.752 12.5853 34.8714 12.5357 34.9829L13.4495 35.3891C13.5173 35.2366 13.5758 35.0774 13.6255 34.9117L12.6677 34.6243ZM12.5402 34.9731C12.4858 35.0888 12.449 35.1514 12.4301 35.1782C12.42 35.1925 12.4276 35.1783 12.4543 35.1557C12.4687 35.1435 12.4967 35.1218 12.5385 35.102C12.5811 35.0819 12.6464 35.06 12.7286 35.06V36.06C12.9174 36.06 13.0471 35.9642 13.1019 35.9176C13.1653 35.8638 13.2132 35.8028 13.2471 35.7548C13.3162 35.6569 13.3822 35.5325 13.445 35.3989L12.5402 34.9731ZM12.7286 35.06C12.8181 35.06 12.8335 35.1036 12.7591 35.0392C12.6937 34.9825 12.6002 34.8774 12.4797 34.7034L11.6575 35.2726C11.8011 35.48 11.9495 35.6608 12.1042 35.7948C12.2498 35.9211 12.4632 36.06 12.7286 36.06V35.06ZM12.4797 34.7034C12.2554 34.3794 12.1726 34.1105 12.1726 33.888H11.1726C11.1726 34.3695 11.3538 34.8339 11.6575 35.2726L12.4797 34.7034ZM12.1726 33.888C12.1726 33.8905 12.1726 33.8811 12.1754 33.8544C12.178 33.8294 12.1824 33.796 12.1889 33.7529C12.2021 33.6667 12.2225 33.5522 12.2511 33.4074C12.3083 33.1182 12.3949 32.7228 12.5117 32.2189C12.7452 31.212 13.0962 29.786 13.5652 27.9391L12.596 27.6929C12.1264 29.542 11.7734 30.976 11.5375 31.9931C11.4197 32.5012 11.3303 32.9088 11.2701 33.2136C11.214 33.4976 11.1726 33.7414 11.1726 33.888H12.1726ZM13.5648 27.9409C14.0424 26.0891 14.4022 24.5769 14.6429 23.4067C14.8808 22.25 15.0106 21.3902 15.0106 20.864H14.0106C14.0106 21.2764 13.9021 22.0447 13.6634 23.2053C13.4274 24.3525 13.0722 25.8469 12.5965 27.6911L13.5648 27.9409ZM36.358 20.358L35.9511 20.0674L35.9464 20.0739L35.942 20.0806L36.358 20.358ZM37.7 20.798L37.3716 21.175L37.3716 21.175L37.7 20.798ZM38.426 21.854L37.9282 21.9014L37.9291 21.9092L38.426 21.854ZM39.262 24.67L38.793 24.8433L38.7936 24.845L39.262 24.67ZM40.978 28.74L40.5252 28.952L40.8553 29.6574L41.3593 29.0635L40.978 28.74ZM44.08 24.89L44.4743 25.1975L44.4756 25.1957L44.08 24.89ZM48.986 20.886L48.6324 21.2396L48.6324 21.2396L48.986 20.886ZM49.03 23.966L48.5464 23.8387L48.5442 23.8478L49.03 23.966ZM48.656 25.396L48.1751 25.2586L48.172 25.2705L48.656 25.396ZM47.556 29.312L48.0394 29.4399L48.0402 29.4365L47.556 29.312ZM47.094 31.16L47.5797 31.2789L47.5802 31.2767L47.094 31.16ZM46.654 32.942L46.1688 32.8207L46.1663 32.8319L46.654 32.942ZM46.324 34.284L45.8409 34.1552L45.8399 34.1588L46.324 34.284ZM45.114 35.032L45.5536 34.7939L45.5536 34.7939L45.114 35.032ZM45.576 29.532L45.0899 29.4147L45.0892 29.4179L45.576 29.532ZM47.226 23.944L47.6954 24.1163L46.8356 23.6317L47.226 23.944ZM42.232 29.994L41.8705 29.6485L41.8665 29.6528L42.232 29.994ZM39.57 30.302L39.1589 30.5866L39.1665 30.5976L39.1746 30.6081L39.57 30.302ZM37.436 24.89L37.913 24.74L36.9424 24.8101L37.436 24.89ZM36.6 28.85L36.1185 28.7152L36.1173 28.7195L36.6 28.85ZM36.006 31.028L35.5243 30.8931L35.5209 30.9067L36.006 31.028ZM35.764 31.908L35.2868 31.7589L35.2824 31.7727L35.2789 31.7867L35.764 31.908ZM35.544 32.744L36.0248 32.8814L36.0264 32.8756L35.544 32.744ZM35.302 33.514L34.8311 33.3458L34.8257 33.3611L34.8212 33.3766L35.302 33.514ZM35.104 34.196L35.5813 34.3452L35.5837 34.3371L35.104 34.196ZM34.906 34.768L34.4418 34.5823L34.4335 34.603L34.4271 34.6243L34.906 34.768ZM34.752 35.186L35.2045 35.3989L35.2089 35.3891L34.752 35.186ZM33.828 34.988L33.4169 35.2726L33.4169 35.2726L33.828 34.988ZM34.84 27.816L34.3558 27.6911L34.3554 27.6929L34.84 27.816ZM36.77 20.864C36.77 20.7563 36.7765 20.6826 36.7846 20.6362C36.7885 20.6136 36.7919 20.603 36.7925 20.6013C36.7932 20.5991 36.7888 20.6131 36.774 20.6354L35.942 20.0806C35.8575 20.2074 35.8195 20.3493 35.7994 20.4648C35.7781 20.587 35.77 20.7223 35.77 20.864H36.77ZM36.7649 20.6486C36.7553 20.662 36.7432 20.6747 36.7296 20.6853C36.7161 20.6958 36.7043 20.7018 36.6969 20.7048C36.6834 20.7104 36.6903 20.704 36.732 20.704V19.704C36.4631 19.704 36.1521 19.786 35.9511 20.0674L36.7649 20.6486ZM36.732 20.704C36.6813 20.704 36.709 20.6888 36.8555 20.7787C36.9836 20.8573 37.1545 20.9859 37.3716 21.175L38.0284 20.421C37.7909 20.2141 37.5731 20.0457 37.3785 19.9263C37.2023 19.8182 36.9733 19.704 36.732 19.704V20.704ZM37.3716 21.175C37.8096 21.5566 37.9183 21.7973 37.9282 21.9014L38.9237 21.8066C38.875 21.2947 38.4997 20.8314 38.0284 20.421L37.3716 21.175ZM37.9291 21.9092C37.9954 22.5065 38.2964 23.4995 38.793 24.8433L39.731 24.4967C39.2303 23.1419 38.9739 22.2575 38.9229 21.7988L37.9291 21.9092ZM38.7936 24.845C39.2973 26.193 39.8745 27.562 40.5252 28.952L41.4308 28.528C40.7908 27.1607 40.2241 25.8163 39.7304 24.495L38.7936 24.845ZM41.3593 29.0635C42.1869 28.0881 43.2256 26.7988 44.4743 25.1975L43.6857 24.5825C42.4411 26.1786 41.4118 27.4559 40.5967 28.4165L41.3593 29.0635ZM44.4756 25.1957C45.7217 23.5831 46.6365 22.4512 47.2253 21.7907L46.4787 21.1253C45.8648 21.8141 44.9316 22.9702 43.6844 24.5843L44.4756 25.1957ZM47.2253 21.7907C47.5169 21.4634 47.7526 21.2355 47.9349 21.0933C48.1415 20.9323 48.199 20.946 48.15 20.946V19.946C47.837 19.946 47.5462 20.1284 47.3201 20.3047C47.0697 20.4999 46.7884 20.7779 46.4787 21.1253L47.2253 21.7907ZM48.15 20.946C48.2226 20.946 48.3809 20.988 48.6324 21.2396L49.3396 20.5324C49.0044 20.1973 48.6054 19.946 48.15 19.946V20.946ZM48.6324 21.2396C48.884 21.4911 48.926 21.6494 48.926 21.722H49.926C49.926 21.2666 49.6747 20.8676 49.3396 20.5324L48.6324 21.2396ZM48.926 21.722C48.926 21.9503 48.9005 22.2215 48.8454 22.5383L49.8306 22.7097C49.8928 22.3519 49.926 22.0217 49.926 21.722H48.926ZM48.8454 22.5383C48.7902 22.8555 48.6916 23.2873 48.5465 23.8388L49.5135 24.0932C49.6617 23.5301 49.7684 23.0672 49.8306 22.7097L48.8454 22.5383ZM48.5442 23.8478C48.4133 24.3859 48.2903 24.8559 48.1752 25.2586L49.1368 25.5334C49.2564 25.1147 49.3827 24.6314 49.5158 24.0842L48.5442 23.8478ZM48.172 25.2705C48.0714 25.6584 47.8973 26.2753 47.6482 27.1254L48.6078 27.4066C48.8573 26.5553 49.0352 25.9256 49.14 25.5215L48.172 25.2705ZM47.6482 27.1254C47.3982 27.9783 47.2057 28.6664 47.0718 29.1875L48.0402 29.4365C48.1702 28.931 48.3592 28.255 48.6078 27.4066L47.6482 27.1254ZM47.0726 29.1841C46.9393 29.6877 46.7843 30.3078 46.6078 31.0433L47.5802 31.2767C47.7557 30.5456 47.9087 29.9336 48.0393 29.4399L47.0726 29.1841ZM46.6083 31.0411C46.4325 31.7593 46.286 32.3525 46.1689 32.8207L47.1391 33.0633C47.2567 32.5929 47.4035 31.998 47.5796 31.2789L46.6083 31.0411ZM46.1663 32.8319C46.065 33.2804 45.9565 33.7215 45.8409 34.1552L46.8071 34.4128C46.9261 33.9665 47.0377 33.5129 47.1417 33.0521L46.1663 32.8319ZM45.8399 34.1588C45.7327 34.5736 45.6349 34.8522 45.5523 35.0174C45.5326 35.0567 45.516 35.0852 45.503 35.1049C45.4896 35.125 45.4831 35.1315 45.4848 35.1298C45.4861 35.1284 45.5022 35.1121 45.535 35.0952C45.5702 35.0772 45.6222 35.06 45.686 35.06V36.06C45.922 36.06 46.0944 35.9361 46.198 35.8307C46.302 35.7249 46.3823 35.5934 46.4467 35.4646C46.5768 35.2045 46.6953 34.8451 46.8081 34.4092L45.8399 34.1588ZM45.686 35.06C45.7558 35.06 45.7759 35.0945 45.7391 35.0606C45.6999 35.0244 45.6354 34.9448 45.5536 34.7939L44.6744 35.2701C44.7832 35.4712 44.9094 35.6556 45.0609 35.7954C45.2148 35.9375 45.4255 36.06 45.686 36.06V35.06ZM45.5536 34.7939C45.4168 34.5412 45.328 34.1635 45.328 33.624H44.328C44.328 34.2579 44.4299 34.8188 44.6744 35.2701L45.5536 34.7939ZM45.328 33.624C45.328 33.3727 45.3824 32.9205 45.5068 32.2399C45.6294 31.5693 45.8144 30.7054 46.0628 29.6461L45.0892 29.4179C44.8389 30.4852 44.6499 31.3667 44.5231 32.0601C44.3982 32.7435 44.328 33.274 44.328 33.624H45.328ZM46.062 29.6493C46.5721 27.5363 47.1169 25.6927 47.6954 24.1163L46.7566 23.7717C46.1618 25.3926 45.6066 27.2743 45.09 29.4147L46.062 29.6493ZM46.8356 23.6317C44.1302 27.0133 42.4821 29.0085 41.8705 29.6486L42.5935 30.3394C43.2432 29.6595 44.9244 27.6213 47.6164 24.2563L46.8356 23.6317ZM41.8665 29.6528C41.5746 29.9655 41.3241 30.1813 41.1146 30.3159C40.9018 30.4527 40.7655 30.484 40.692 30.484V31.484C41.0291 31.484 41.3548 31.3503 41.6554 31.1571C41.9593 30.9617 42.2734 30.6825 42.5975 30.3352L41.8665 29.6528ZM40.692 30.484C40.5114 30.484 40.2674 30.386 39.9654 29.9959L39.1746 30.6081C39.5766 31.1273 40.0806 31.484 40.692 31.484V30.484ZM39.9811 30.0174C39.7517 29.6861 39.459 29.0898 39.1056 28.1936C38.756 27.3068 38.3584 26.1567 37.913 24.74L36.959 25.04C37.4082 26.4686 37.8137 27.6432 38.1754 28.5604C38.5333 29.4682 38.8603 30.1552 39.1589 30.5866L39.9811 30.0174ZM36.9424 24.8101C36.6951 26.3378 36.42 27.6384 36.1185 28.7152L37.0815 28.9848C37.396 27.8616 37.6782 26.5222 37.9296 24.9699L36.9424 24.8101ZM36.1173 28.7195C35.8239 29.8052 35.6265 30.529 35.5245 30.8932L36.4875 31.1628C36.5909 30.7936 36.7894 30.0654 37.0827 28.9805L36.1173 28.7195ZM35.5209 30.9067C35.4343 31.2533 35.3562 31.5366 35.2868 31.7589L36.2412 32.0571C36.3185 31.8101 36.4017 31.5067 36.4911 31.1493L35.5209 30.9067ZM35.2789 31.7867C35.2214 32.0169 35.149 32.292 35.0616 32.6124L36.0264 32.8756C36.115 32.5507 36.1893 32.2684 36.2491 32.0293L35.2789 31.7867ZM35.0632 32.6066C34.977 32.9086 34.8996 33.1542 34.8311 33.3458L35.7729 33.6822C35.8511 33.4632 35.935 33.1954 36.0248 32.8814L35.0632 32.6066ZM34.8212 33.3766C34.763 33.5805 34.6974 33.8066 34.6243 34.0549L35.5837 34.3371C35.6573 34.0868 35.7237 33.8582 35.7828 33.6514L34.8212 33.3766ZM34.6268 34.0469C34.5554 34.2751 34.4938 34.4523 34.4418 34.5823L35.3702 34.9537C35.4356 34.7904 35.5059 34.5862 35.5812 34.3451L34.6268 34.0469ZM34.4271 34.6243C34.3888 34.752 34.3447 34.8714 34.2951 34.9829L35.2089 35.3891C35.2766 35.2366 35.3352 35.0774 35.3849 34.9117L34.4271 34.6243ZM34.2996 34.9731C34.2451 35.0888 34.2084 35.1514 34.1895 35.1782C34.1794 35.1925 34.187 35.1783 34.2137 35.1557C34.228 35.1435 34.2561 35.1218 34.2979 35.102C34.3405 35.0819 34.4057 35.06 34.488 35.06V36.06C34.6768 36.06 34.8065 35.9642 34.8613 35.9176C34.9247 35.8638 34.9726 35.8028 35.0065 35.7548C35.0756 35.6569 35.1415 35.5325 35.2044 35.3989L34.2996 34.9731ZM34.488 35.06C34.5774 35.06 34.5928 35.1036 34.5185 35.0392C34.4531 34.9825 34.3595 34.8774 34.2391 34.7034L33.4169 35.2726C33.5605 35.48 33.7089 35.6608 33.8635 35.7948C34.0092 35.9211 34.2226 36.06 34.488 36.06V35.06ZM34.2391 34.7034C34.0148 34.3794 33.932 34.1105 33.932 33.888H32.932C32.932 34.3695 33.1132 34.8339 33.4169 35.2726L34.2391 34.7034ZM33.932 33.888C33.932 33.8905 33.932 33.8811 33.9348 33.8544C33.9374 33.8294 33.9417 33.796 33.9483 33.7529C33.9614 33.6667 33.9819 33.5522 34.0105 33.4074C34.0676 33.1182 34.1542 32.7228 34.2711 32.2189C34.5046 31.212 34.8556 29.786 35.3246 27.9391L34.3554 27.6929C33.8858 29.542 33.5328 30.976 33.2969 31.9931C33.1791 32.5012 33.0897 32.9088 33.0295 33.2136C32.9734 33.4976 32.932 33.7414 32.932 33.888H33.932ZM35.3242 27.9409C35.8018 26.0891 36.1616 24.5769 36.4022 23.4067C36.6402 22.25 36.77 21.3902 36.77 20.864H35.77C35.77 21.2764 35.6615 22.0447 35.4228 23.2053C35.1868 24.3525 34.8315 25.8469 34.3558 27.6911L35.3242 27.9409Z" fill="white"/>
<path d="M10.3245 24.618C10.6185 24.618 10.8565 24.737 11.0385 24.975C11.2345 25.199 11.3325 25.381 11.3325 25.521C11.3325 25.661 11.2975 25.766 11.2275 25.836C11.1295 25.934 10.6675 26.137 9.84148 26.445C9.02948 26.753 7.84648 27.285 6.29248 28.041C4.73848 28.797 3.96148 29.322 3.96148 29.616C3.96148 29.854 4.46548 30.246 5.47348 30.792C6.48148 31.338 7.48948 31.877 8.49748 32.409C9.51948 32.941 10.0305 33.312 10.0305 33.522C10.0305 33.816 9.77148 33.963 9.25348 33.963C8.74948 33.963 7.88848 33.718 6.67048 33.228C5.46648 32.724 4.33948 32.136 3.28948 31.464C2.23948 30.792 1.71448 30.26 1.71448 29.868C1.71448 29.644 1.79148 29.364 1.94548 29.028C2.09948 28.678 2.26048 28.433 2.42848 28.293C3.14248 27.691 4.45848 26.928 6.37648 26.004C8.30848 25.08 9.62448 24.618 10.3245 24.618ZM30.2835 31.443C29.4295 33.515 28.7645 35.062 28.2885 36.084C27.8265 37.106 27.5115 37.617 27.3435 37.617C27.1895 37.617 26.9865 37.463 26.7345 37.155C26.4965 36.861 26.3775 36.616 26.3775 36.42C26.3775 35.65 28.5895 30.141 33.0135 19.893C33.0275 19.851 33.0485 19.802 33.0765 19.746C33.1045 19.676 33.1255 19.627 33.1395 19.599C33.1535 19.557 33.1675 19.515 33.1815 19.473C33.2095 19.431 33.2305 19.403 33.2445 19.389C33.2725 19.375 33.3005 19.354 33.3285 19.326C33.3705 19.298 33.4545 19.284 33.5805 19.284C33.7065 19.284 33.9235 19.494 34.2315 19.914C34.5535 20.334 34.7145 20.705 34.7145 21.027C34.7145 21.335 34.5325 21.909 34.1685 22.749C33.8185 23.575 33.2935 24.716 32.5935 26.172C31.9075 27.614 31.1375 29.371 30.2835 31.443ZM50.987 24.933C50.987 24.709 51.148 24.597 51.47 24.597C52.422 24.611 53.57 24.982 54.914 25.71C56.258 26.438 57.343 27.208 58.169 28.02C58.617 28.468 58.841 28.881 58.841 29.259C58.841 29.791 57.742 30.659 55.544 31.863C55.376 31.961 55.243 32.038 55.145 32.094C52.919 33.354 51.421 33.984 50.651 33.984C50.231 33.984 50.021 33.844 50.021 33.564C50.021 33.27 50.581 32.794 51.701 32.136C52.835 31.464 53.962 30.827 55.082 30.225C56.216 29.609 56.783 29.224 56.783 29.07C56.783 28.776 56.216 28.307 55.082 27.663C53.948 27.019 53.017 26.592 52.289 26.382C52.023 26.298 51.736 26.081 51.428 25.731C51.134 25.367 50.987 25.101 50.987 24.933Z" fill="white"/>
<path d="M11.0385 24.975L10.8399 25.1269L10.8449 25.1334L10.8503 25.1396L11.0385 24.975ZM11.2275 25.836L11.4043 26.0128L11.4043 26.0128L11.2275 25.836ZM9.84148 26.445L9.75413 26.2108L9.75281 26.2113L9.84148 26.445ZM6.29248 28.041L6.40184 28.2658L6.40184 28.2658L6.29248 28.041ZM5.47348 30.792L5.59255 30.5722L5.59255 30.5722L5.47348 30.792ZM8.49748 32.409L8.38079 32.6301L8.38204 32.6308L8.49748 32.409ZM6.67048 33.228L6.57393 33.4586L6.57717 33.4599L6.67048 33.228ZM1.94548 29.028L2.17277 29.1322L2.17431 29.1287L1.94548 29.028ZM2.42848 28.293L2.58853 28.4851L2.58963 28.4841L2.42848 28.293ZM6.37648 26.004L6.26861 25.7785L6.26797 25.7788L6.37648 26.004ZM10.3245 24.868C10.5389 24.868 10.7041 24.9493 10.8399 25.1269L11.2371 24.8231C11.0088 24.5247 10.6981 24.368 10.3245 24.368V24.868ZM10.8503 25.1396C10.9409 25.2431 11.0017 25.329 11.0389 25.398C11.0769 25.4687 11.0825 25.5074 11.0825 25.521H11.5825C11.5825 25.3946 11.5391 25.2723 11.4791 25.161C11.4183 25.048 11.3321 24.9309 11.2266 24.8104L10.8503 25.1396ZM11.0825 25.521C11.0825 25.6225 11.0573 25.6526 11.0507 25.6592L11.4043 26.0128C11.5377 25.8794 11.5825 25.6995 11.5825 25.521H11.0825ZM11.0507 25.6592C11.0545 25.6554 11.0364 25.6719 10.9674 25.709C10.9055 25.7422 10.8194 25.7834 10.7069 25.8329C10.4823 25.9316 10.1654 26.0574 9.75413 26.2108L9.92882 26.6792C10.3435 26.5246 10.6706 26.3949 10.908 26.2906C11.0265 26.2386 11.1259 26.1914 11.2041 26.1494C11.2751 26.1112 11.3515 26.0656 11.4043 26.0128L11.0507 25.6592ZM9.75281 26.2113C8.92989 26.5234 7.73865 27.0594 6.18311 27.8162L6.40184 28.2658C7.95431 27.5106 9.12906 26.9826 9.93014 26.6787L9.75281 26.2113ZM6.18311 27.8162C5.40275 28.1958 4.80749 28.5222 4.40426 28.7946C4.20345 28.9303 4.04089 29.0588 3.9258 29.1801C3.82024 29.2914 3.71148 29.4407 3.71148 29.616H4.21148C4.21148 29.6443 4.19984 29.6177 4.28853 29.5243C4.36769 29.4408 4.4965 29.3357 4.68419 29.2089C5.05797 28.9563 5.6282 28.6422 6.40184 28.2658L6.18311 27.8162ZM3.71148 29.616C3.71148 29.76 3.78474 29.8845 3.86076 29.9795C3.94096 30.0798 4.05237 30.1819 4.18599 30.2858C4.45414 30.4944 4.84622 30.7366 5.35441 31.0118L5.59255 30.5722C5.09273 30.3014 4.72881 30.0746 4.49296 29.8912C4.37459 29.7991 4.29699 29.7244 4.25119 29.6672C4.20122 29.6047 4.21148 29.591 4.21148 29.616H3.71148ZM5.35441 31.0118C6.36319 31.5582 7.37199 32.0977 8.38079 32.6301L8.61417 32.1879C7.60697 31.6563 6.59976 31.1178 5.59255 30.5722L5.35441 31.0118ZM8.38204 32.6308C8.88945 32.8949 9.25984 33.1139 9.50035 33.2886C9.62127 33.3763 9.70047 33.4466 9.74694 33.4994C9.80068 33.5605 9.78048 33.564 9.78048 33.522H10.2805C10.2805 33.375 10.1964 33.2534 10.1224 33.1692C10.0411 33.0768 9.92869 32.9817 9.79411 32.8839C9.52362 32.6876 9.12751 32.4551 8.61291 32.1872L8.38204 32.6308ZM9.78048 33.522C9.78048 33.5776 9.76534 33.6055 9.71283 33.6353C9.63939 33.677 9.49702 33.713 9.25348 33.713V34.213C9.52793 34.213 9.77407 34.1755 9.95963 34.0702C10.1661 33.953 10.2805 33.7604 10.2805 33.522H9.78048ZM9.25348 33.713C8.80413 33.713 7.98518 33.4874 6.76378 32.9961L6.57717 33.4599C7.79177 33.9486 8.69483 34.213 9.25348 34.213V33.713ZM6.76701 32.9974C5.57569 32.4987 4.46155 31.9173 3.42424 31.2534L3.15471 31.6746C4.21741 32.3547 5.35727 32.9493 6.57394 33.4586L6.76701 32.9974ZM3.42424 31.2534C2.90599 30.9218 2.52985 30.6323 2.28617 30.3854C2.03272 30.1286 1.96448 29.9596 1.96448 29.868H1.46448C1.46448 30.1684 1.65874 30.4614 1.93028 30.7366C2.2116 31.0217 2.62296 31.3342 3.15471 31.6746L3.42424 31.2534ZM1.96448 29.868C1.96448 29.696 2.02519 29.4541 2.17274 29.1322L1.71821 28.9238C1.55776 29.2739 1.46448 29.592 1.46448 29.868H1.96448ZM2.17431 29.1287C2.32275 28.7913 2.46472 28.5882 2.58852 28.4851L2.26843 28.1009C2.05624 28.2778 1.8762 28.5647 1.71665 28.9273L2.17431 29.1287ZM2.58963 28.4841C3.27739 27.9043 4.56807 27.1527 6.48498 26.2292L6.26797 25.7788C4.34889 26.7033 3.00757 27.4777 2.26733 28.1019L2.58963 28.4841ZM6.48434 26.2295C7.446 25.7696 8.24905 25.4273 8.89529 25.2004C9.54767 24.9714 10.0186 24.868 10.3245 24.868V24.368C9.93035 24.368 9.39329 24.4956 8.72967 24.7286C8.0599 24.9637 7.23895 25.3144 6.26861 25.7785L6.48434 26.2295ZM30.2835 31.443L30.0524 31.3477L30.0524 31.3477L30.2835 31.443ZM28.2885 36.084L28.0619 35.9784L28.0607 35.981L28.2885 36.084ZM26.7345 37.155L26.5402 37.3123L26.541 37.3133L26.7345 37.155ZM33.0135 19.893L33.243 19.9921L33.2473 19.9822L33.2507 19.9721L33.0135 19.893ZM33.0765 19.746L33.3001 19.8578L33.3048 19.8485L33.3086 19.8388L33.0765 19.746ZM33.1395 19.599L33.3631 19.7108L33.3711 19.6949L33.3767 19.6781L33.1395 19.599ZM33.1815 19.473L32.9735 19.3343L32.9549 19.3622L32.9443 19.3939L33.1815 19.473ZM33.2445 19.389L33.1327 19.1654L33.0964 19.1835L33.0677 19.2122L33.2445 19.389ZM33.3285 19.326L33.1898 19.118L33.1692 19.1317L33.1517 19.1492L33.3285 19.326ZM34.2315 19.914L34.0299 20.0619L34.0331 20.0661L34.2315 19.914ZM34.1685 22.749L33.9391 22.6496L33.9383 22.6515L34.1685 22.749ZM32.5935 26.172L32.3682 26.0637L32.3677 26.0646L32.5935 26.172ZM30.0524 31.3477C29.1987 33.4189 28.5354 34.9617 28.0619 35.9784L28.5151 36.1896C28.9936 35.1623 29.6603 33.6111 30.5146 31.5383L30.0524 31.3477ZM28.0607 35.981C27.831 36.4891 27.642 36.8608 27.4929 37.1026C27.4178 37.2244 27.3586 37.3037 27.3154 37.3495C27.3051 37.3603 27.2969 37.3681 27.2906 37.3734C27.2875 37.3761 27.2852 37.378 27.2835 37.3792C27.2818 37.3805 27.281 37.381 27.2811 37.3809C27.2811 37.3809 27.2823 37.3802 27.2846 37.379C27.2869 37.3779 27.2906 37.3762 27.2957 37.3745C27.3057 37.3711 27.3221 37.367 27.3435 37.367V37.867C27.4275 37.867 27.4969 37.8356 27.5457 37.8051C27.5956 37.774 27.6399 37.734 27.6787 37.6929C27.7562 37.6109 27.8362 37.4986 27.9186 37.3649C28.0845 37.0957 28.284 36.7009 28.5163 36.187L28.0607 35.981ZM27.3435 37.367C27.3466 37.367 27.3109 37.3661 27.2268 37.3023C27.1472 37.2419 27.0476 37.1429 26.928 36.9967L26.541 37.3133C26.6734 37.4751 26.8013 37.6071 26.9247 37.7007C27.0436 37.7909 27.1864 37.867 27.3435 37.867V37.367ZM26.9288 36.9977C26.6981 36.7127 26.6275 36.5255 26.6275 36.42H26.1275C26.1275 36.7065 26.2949 37.0093 26.5402 37.3123L26.9288 36.9977ZM26.6275 36.42C26.6275 36.363 26.6519 36.2241 26.7217 35.9772C26.7888 35.74 26.8906 35.4272 27.028 35.037C27.3028 34.2572 27.716 33.18 28.2685 31.8039C29.3733 29.0524 31.0313 25.1155 33.243 19.9921L32.784 19.7939C30.5717 24.9185 28.9117 28.8601 27.8045 31.6176C27.251 32.996 26.8347 34.081 26.5565 34.8709C26.4174 35.2656 26.3118 35.5895 26.2406 35.8411C26.1722 36.0828 26.1275 36.2845 26.1275 36.42H26.6275ZM33.2507 19.9721C33.2598 19.9448 33.2754 19.9072 33.3001 19.8578L32.8529 19.6342C32.8216 19.6968 32.7952 19.7572 32.7763 19.8139L33.2507 19.9721ZM33.3086 19.8388C33.3366 19.7689 33.3542 19.7285 33.3631 19.7108L32.9159 19.4872C32.8968 19.5255 32.8724 19.5831 32.8444 19.6532L33.3086 19.8388ZM33.3767 19.6781C33.3907 19.6361 33.4047 19.5941 33.4187 19.5521L32.9443 19.3939C32.9303 19.4359 32.9163 19.4779 32.9023 19.5199L33.3767 19.6781ZM33.3895 19.6117C33.402 19.593 33.4114 19.5796 33.4182 19.5705C33.4216 19.566 33.4237 19.5634 33.4247 19.5622C33.426 19.5607 33.4247 19.5624 33.4213 19.5658L33.0677 19.2122C33.0341 19.2459 33.0008 19.2933 32.9735 19.3343L33.3895 19.6117ZM33.3563 19.6126C33.4137 19.5839 33.4631 19.545 33.5053 19.5028L33.1517 19.1492C33.1379 19.163 33.1313 19.1661 33.1327 19.1654L33.3563 19.6126ZM33.4672 19.534C33.4605 19.5384 33.4552 19.5412 33.4519 19.5427C33.4503 19.5435 33.449 19.544 33.4482 19.5443C33.4474 19.5446 33.4469 19.5448 33.4469 19.5448C33.4469 19.5448 33.4473 19.5447 33.448 19.5445C33.4488 19.5442 33.4499 19.544 33.4514 19.5436C33.4544 19.5429 33.4585 19.542 33.4641 19.5411C33.4877 19.5372 33.5254 19.534 33.5805 19.534V19.034C33.5096 19.034 33.4423 19.0378 33.3819 19.0479C33.3258 19.0573 33.2538 19.0753 33.1898 19.118L33.4672 19.534ZM33.5805 19.534C33.5461 19.534 33.5367 19.5214 33.5615 19.5366C33.5831 19.5498 33.6169 19.5757 33.6639 19.6211C33.7576 19.7118 33.8792 19.8563 34.0299 20.0618L34.4331 19.7662C34.2758 19.5517 34.1349 19.3812 34.0116 19.2618C33.9501 19.2023 33.8868 19.1495 33.8226 19.1102C33.7617 19.0729 33.6779 19.034 33.5805 19.034V19.534ZM34.0331 20.0661C34.3414 20.4682 34.4645 20.7854 34.4645 21.027H34.9645C34.9645 20.6246 34.7656 20.1998 34.4299 19.7619L34.0331 20.0661ZM34.4645 21.027C34.4645 21.1412 34.4289 21.3317 34.3397 21.6129C34.2522 21.8888 34.1193 22.2338 33.9391 22.6496L34.3979 22.8484C34.5817 22.4242 34.7218 22.0622 34.8163 21.7641C34.9091 21.4713 34.9645 21.2208 34.9645 21.027H34.4645ZM33.9383 22.6515C33.5906 23.472 33.0676 24.6089 32.3682 26.0637L32.8188 26.2803C33.5194 24.8231 34.0464 23.678 34.3987 22.8465L33.9383 22.6515ZM32.3677 26.0646C31.6793 27.5118 30.9074 29.2731 30.0524 31.3477L30.5146 31.5383C31.3676 29.4689 32.1357 27.7162 32.8193 26.2794L32.3677 26.0646ZM51.47 24.597L51.4737 24.347H51.47V24.597ZM54.914 25.71L54.795 25.9298L54.795 25.9298L54.914 25.71ZM58.169 28.02L58.3458 27.8432L58.3443 27.8417L58.169 28.02ZM55.544 31.863L55.4239 31.6437L55.4181 31.6471L55.544 31.863ZM55.145 32.094L55.2682 32.3116L55.2691 32.3111L55.145 32.094ZM51.701 32.136L51.8277 32.3516L51.8285 32.3511L51.701 32.136ZM55.082 30.225L55.2004 30.4452L55.2014 30.4447L55.082 30.225ZM55.082 27.663L55.2055 27.4456L55.2055 27.4456L55.082 27.663ZM52.289 26.382L52.2137 26.6205L52.2197 26.6222L52.289 26.382ZM51.428 25.731L51.2334 25.8882L51.2404 25.8962L51.428 25.731ZM51.237 24.933C51.237 24.9069 51.2417 24.8962 51.2427 24.894C51.2431 24.8931 51.2439 24.8909 51.2506 24.8862C51.27 24.8727 51.3303 24.847 51.47 24.847V24.347C51.2878 24.347 51.1066 24.3773 50.965 24.4758C50.807 24.5857 50.737 24.7526 50.737 24.933H51.237ZM51.4664 24.847C52.3607 24.8601 53.4672 25.2106 54.795 25.9298L55.0331 25.4902C53.6728 24.7534 52.4833 24.3619 51.4737 24.347L51.4664 24.847ZM54.795 25.9298C56.1245 26.65 57.1888 27.407 57.9938 28.1983L58.3443 27.8417C57.4973 27.009 56.3915 26.226 55.0331 25.4902L54.795 25.9298ZM57.9923 28.1968C58.4233 28.6278 58.591 28.9801 58.591 29.259H59.091C59.091 28.7819 58.8108 28.3082 58.3458 27.8432L57.9923 28.1968ZM58.591 29.259C58.591 29.3093 58.5624 29.4086 58.4383 29.5666C58.318 29.7199 58.1288 29.9019 57.8618 30.1128C57.3286 30.5339 56.5186 31.0441 55.4239 31.6437L55.6641 32.0823C56.7674 31.4779 57.6059 30.9521 58.1717 30.5052C58.4542 30.2821 58.6772 30.0721 58.8316 29.8754C58.9823 29.6834 59.091 29.4747 59.091 29.259H58.591ZM55.4181 31.6471C55.2503 31.7449 55.1181 31.8215 55.021 31.8769L55.2691 32.3111C55.368 32.2545 55.5018 32.1771 55.67 32.0789L55.4181 31.6471ZM55.0219 31.8764C53.9132 32.504 52.9916 32.9713 52.2551 33.2811C51.5103 33.5943 50.9827 33.734 50.651 33.734V34.234C51.0894 34.234 51.6958 34.0587 52.449 33.7419C53.2105 33.4217 54.1509 32.944 55.2682 32.3116L55.0219 31.8764ZM50.651 33.734C50.4609 33.734 50.3621 33.7009 50.3172 33.671C50.2903 33.653 50.271 33.6312 50.271 33.564H49.771C49.771 33.7768 49.8568 33.965 50.0399 34.087C50.205 34.1971 50.4212 34.234 50.651 34.234V33.734ZM50.271 33.564C50.271 33.567 50.2716 33.5342 50.3282 33.4564C50.3821 33.3824 50.4708 33.2893 50.603 33.177C50.8667 32.9528 51.2722 32.6779 51.8277 32.3516L51.5744 31.9204C51.0099 32.2521 50.5754 32.5442 50.2791 32.796C50.1312 32.9217 50.01 33.0439 49.9239 33.1623C49.8404 33.277 49.771 33.414 49.771 33.564H50.271ZM51.8285 32.3511C52.9596 31.6808 54.0836 31.0455 55.2004 30.4452L54.9637 30.0048C53.8405 30.6085 52.7105 31.2472 51.5736 31.9209L51.8285 32.3511ZM55.2014 30.4447C55.7705 30.1355 56.2044 29.8806 56.4982 29.6811C56.6442 29.5819 56.7635 29.4912 56.849 29.41C56.8915 29.3696 56.9323 29.3253 56.9642 29.2776C56.9932 29.2343 57.033 29.1616 57.033 29.07H56.533C56.533 29.0169 56.5551 28.9899 56.5487 28.9995C56.5451 29.0048 56.5329 29.0206 56.5045 29.0476C56.4482 29.1011 56.3549 29.1741 56.2174 29.2674C55.9442 29.4529 55.5276 29.6985 54.9627 30.0053L55.2014 30.4447ZM57.033 29.07C57.033 28.9187 56.9621 28.7816 56.8774 28.6676C56.7899 28.5498 56.6669 28.429 56.5171 28.3051C56.217 28.0569 55.7771 27.7702 55.2055 27.4456L54.9586 27.8804C55.521 28.1998 55.9316 28.4696 56.1984 28.6904C56.3322 28.801 56.4218 28.8928 56.4761 28.9658C56.5331 29.0426 56.533 29.0743 56.533 29.07H57.033ZM55.2055 27.4456C54.0648 26.7978 53.114 26.3598 52.3583 26.1418L52.2197 26.6222C52.9201 26.8242 53.8313 27.2402 54.9586 27.8804L55.2055 27.4456ZM52.3643 26.1436C52.1619 26.0797 51.9116 25.9021 51.6157 25.5658L51.2404 25.8962C51.5605 26.2599 51.8842 26.5163 52.2138 26.6204L52.3643 26.1436ZM51.6225 25.5739C51.4803 25.3979 51.3799 25.253 51.3161 25.1376C51.2489 25.0161 51.237 24.9529 51.237 24.933H50.737C50.737 25.0811 50.7986 25.2349 50.8785 25.3794C50.9617 25.53 51.0817 25.7001 51.2336 25.8881L51.6225 25.5739Z" fill="white"/>
</svg>
